# Blender 3.5.0
# www.blender.org
mtllib Armchair.mtl
o Armchair
v -0.118338 0.018779 0.400000
v -0.118338 0.075008 0.400000
v -0.077721 -0.095032 -0.077721
v -0.400000 0.095032 -0.400000
v 0.118338 0.018779 0.400000
v 0.118338 0.075008 0.400000
v 0.077721 -0.095032 -0.077721
v 0.400000 0.095032 -0.400000
v -0.077721 -0.095032 0.077721
v -0.400000 0.095032 0.400000
v 0.400000 0.095032 0.400000
v 0.077721 -0.095032 0.077721
v -0.118338 0.018779 0.463251
v -0.118338 0.075008 0.463251
v 0.118338 0.075008 0.463251
v 0.118338 0.018779 0.463251
v -0.118338 0.122216 0.541757
v -0.118338 0.123298 0.501232
v 0.118338 0.123298 0.501232
v 0.118338 0.122216 0.541757
v -0.118338 0.225255 0.546123
v -0.118338 0.226337 0.505598
v 0.118338 0.226337 0.505598
v 0.118338 0.225255 0.546123
v -0.398787 0.224285 0.582433
v -0.398787 0.227307 0.469287
v 0.398787 0.227307 0.469287
v 0.398787 0.224285 0.582433
v -0.398787 0.696965 0.593442
v -0.398787 0.699986 0.480296
v 0.398787 0.699986 0.480296
v 0.398787 0.696965 0.593442
v -0.400000 -0.095032 -0.400000
v -0.400000 -0.095032 0.400000
v 0.400000 -0.095032 -0.400000
v 0.400000 -0.095032 0.400000
v -0.077721 -0.571104 -0.077721
v -0.077721 -0.571104 0.077721
v 0.077721 -0.571104 -0.077721
v 0.077721 -0.571104 0.077721
v -0.000667 -0.571104 -0.077721
v -0.000667 -0.571104 0.077721
v -0.077721 -0.571104 -0.001056
v 0.077721 -0.571104 -0.001056
v -0.000667 -0.571104 -0.001056
v -0.406196 -0.693787 0.323461
v -0.406196 -0.693787 0.402238
v -0.329142 -0.693787 0.402238
v -0.329142 -0.693787 0.323461
v 0.323850 -0.693787 0.402238
v 0.402238 -0.693787 0.402238
v 0.323850 -0.693787 0.323461
v 0.402238 -0.693787 0.323461
v 0.394323 -0.693787 -0.321616
v 0.394323 -0.693787 -0.398281
v 0.315935 -0.693787 -0.398281
v 0.315935 -0.693787 -0.321616
v -0.321227 -0.693787 -0.398281
v -0.398281 -0.693787 -0.398281
v -0.398281 -0.693787 -0.321616
v -0.321227 -0.693787 -0.321616
v -0.406196 -0.741277 0.323461
v -0.406196 -0.741277 0.402238
v -0.329142 -0.741277 0.402238
v -0.329142 -0.741277 0.323461
v 0.323850 -0.741277 0.402238
v 0.402238 -0.741277 0.402238
v 0.323850 -0.741277 0.323461
v 0.402238 -0.741277 0.323461
v 0.394323 -0.741277 -0.321616
v 0.394323 -0.741277 -0.398281
v 0.315935 -0.741277 -0.398281
v 0.315935 -0.741277 -0.321616
v -0.321227 -0.741277 -0.398281
v -0.398281 -0.741277 -0.398281
v -0.398281 -0.741277 -0.321616
v -0.321227 -0.741277 -0.321616
vn -1.0000 -0.0000 -0.0000
vn -0.0000 -0.0000 -1.0000
vn 1.0000 -0.0000 -0.0000
vn -0.0000 -1.0000 -0.0000
vn -0.0000 -0.0000 1.0000
vn -0.0000 0.6182 -0.7860
vn -0.0000 1.0000 -0.0000
vn -0.0000 -0.6046 0.7966
vn -0.0000 -0.9996 -0.0267
vn -0.0000 -0.0423 0.9991
vn -0.0000 0.0423 -0.9991
vn -0.0000 0.0233 -0.9997
vn -0.0000 0.9996 0.0267
vn -0.0000 -0.0233 0.9997
vn -0.3536 -0.9354 -0.0000
vn 0.3499 -0.9368 -0.0000
vn -0.0000 0.9339 -0.3574
vn -0.0000 -0.9339 0.3574
vn -0.3499 0.9368 -0.0000
vn -0.0000 0.9354 0.3536
vn -0.0000 -0.9354 -0.3536
vn 0.3536 0.9354 -0.0000
vn -0.3613 -0.9324 -0.0000
vn 0.3613 0.9324 -0.0000
vn 0.3574 -0.9339 -0.0000
vn -0.3574 0.9339 -0.0000
vt 0.151198 0.932582
vt 0.184113 0.756969
vt 0.099993 0.908796
vt 0.184159 0.774106
vt 0.113286 0.911363
vt 0.153514 0.849052
vt 0.082611 0.815075
vt 0.187492 0.919392
vt 0.108491 0.849052
vt 0.163937 0.838192
vt 0.201251 0.756922
vt 0.136090 0.927628
vt 0.201297 0.774060
vt 0.128720 0.914977
vt 0.198748 0.919362
vt 0.303065 0.814480
vt 0.119747 0.849052
vt 0.221865 0.838035
vt 0.082580 0.803819
vt 0.186898 0.698938
vt 0.142258 0.849052
vt 0.163781 0.780264
vt 0.221708 0.780108
vt 0.303035 0.803225
vt 0.198153 0.698907
vt 0.131002 0.849052
vt 0.100679 0.905243
vt 0.111547 0.922645
vt 0.152522 0.928545
vt 0.113972 0.907811
vt 0.132098 0.910699
vt 0.138359 0.924429
vt 0.111088 0.894552
vt 0.110844 0.895295
vt 0.152522 0.893046
vt 0.113674 0.894682
vt 0.130015 0.894162
vt 0.132753 0.893891
vt 0.206822 0.957604
vt 0.107417 0.864684
vt 0.148596 0.859607
vt 0.390963 0.823924
vt 0.110247 0.864071
vt 0.390969 0.820971
vt 0.207441 0.655936
vt 0.126951 0.862201
vt 0.006100 0.820181
vt 0.190303 0.655901
vt 0.189684 0.957569
vt 0.129873 0.862197
vt 0.006094 0.823134
vt 0.370650 0.826528
vt 0.227134 0.955000
vt 0.227743 0.658624
vt 0.370667 0.818283
vt 0.169991 0.658505
vt 0.026412 0.817577
vt 0.026396 0.825821
vt 0.169382 0.954881
vt 0.227430 0.810934
vt 0.227447 0.802689
vt 0.169695 0.802571
vt 0.169678 0.810815
vt 0.106010 0.838348
vt 0.164093 0.896119
vt 0.105853 0.780420
vt 0.163625 0.722337
vt 0.222021 0.895963
vt 0.279792 0.837879
vt 0.279636 0.779952
vt 0.221552 0.722180
vt 0.153514 0.994150
vt 0.108491 0.994150
vt 0.139880 0.912074
vt 0.142258 0.994150
vt 0.140208 0.912477
vt 0.119747 0.994150
vt 0.139963 0.912075
vt 0.131002 0.994150
vt 0.139893 0.912129
vt 0.114071 0.994150
vt 0.144997 0.914697
vt 0.134945 0.914677
vt 0.136679 0.994150
vt 0.145120 0.915123
vt 0.134883 0.914795
vt 0.147962 0.994150
vt 0.135168 0.915150
vt 0.144790 0.914663
vt 0.125298 0.994150
vt 0.144929 0.914808
vt 0.135056 0.914672
vt 0.129847 0.917474
vt 0.150160 0.917795
vt 0.130256 0.917795
vt 0.149940 0.917474
vt 0.149903 0.917294
vt 0.130034 0.917266
vt 0.149725 0.917266
vt 0.135168 0.864990
vt 0.144001 0.873671
vt 0.144001 0.894140
vt 0.140208 0.862318
vt 0.119498 0.869637
vt 0.139968 0.869637
vt 0.145120 0.864963
vt 0.115553 0.873582
vt 0.115553 0.894052
vt 0.150160 0.867635
vt 0.130256 0.867635
vt 0.119586 0.898085
vt 0.140056 0.898085
vt 0.134883 0.864770
vt 0.119683 0.869298
vt 0.140153 0.869298
vt 0.139893 0.862104
vt 0.115669 0.873312
vt 0.115669 0.893781
vt 0.129847 0.867450
vt 0.149940 0.867450
vt 0.144186 0.873332
vt 0.144186 0.893801
vt 0.144929 0.864784
vt 0.119703 0.897815
vt 0.140173 0.897815
vt 0.116065 0.894255
vt 0.135056 0.865049
vt 0.116065 0.873785
vt 0.119990 0.898180
vt 0.139963 0.862452
vt 0.140460 0.898180
vt 0.144997 0.865074
vt 0.144473 0.894166
vt 0.144473 0.873697
vt 0.130022 0.867671
vt 0.149903 0.867671
vt 0.140548 0.869771
vt 0.120078 0.869771
vt 0.134945 0.864920
vt 0.119810 0.869771
vt 0.140280 0.869771
vt 0.139880 0.862318
vt 0.115865 0.873717
vt 0.115865 0.894186
vt 0.144790 0.864907
vt 0.119790 0.898112
vt 0.140260 0.898112
vt 0.130034 0.867510
vt 0.149725 0.867510
vt 0.144205 0.873697
vt 0.144205 0.894166
vt 0.133766 0.883905
vt 0.129733 0.879872
vt 0.125787 0.883817
vt 0.129821 0.887851
vt 0.129918 0.879533
vt 0.125904 0.883547
vt 0.133951 0.883566
vt 0.129938 0.887580
vt 0.126300 0.884020
vt 0.130225 0.887945
vt 0.134238 0.883932
vt 0.130313 0.880006
vt 0.130045 0.880006
vt 0.126100 0.883951
vt 0.130025 0.887877
vt 0.133970 0.883932
s 0
f 34/66/1 10/22/1 4/10/1 33/64/1
f 33/65/2 4/10/2 8/18/2 35/68/2
f 35/69/3 8/18/3 11/23/3 36/70/3
f 1/1/4 5/12/4 16/32/4 13/29/4
f 1/2/5 2/4/5 10/22/5 34/67/5
f 6/13/5 5/11/5 36/71/5 11/23/5
f 9/21/1 3/6/1 37/72/1 43/87/1 38/75/1
f 5/11/5 1/2/5 34/67/5 36/71/5
f 2/4/5 6/13/5 11/23/5 10/22/5
f 2/5/1 1/3/1 13/27/1 14/30/1
f 15/31/6 14/30/6 18/36/6 19/37/6
f 5/12/3 6/14/3 15/31/3 16/32/3
f 20/38/3 19/37/3 23/46/3 24/50/3
f 16/32/3 15/31/3 19/37/3 20/38/3
f 6/14/7 2/5/7 14/30/7 15/31/7
f 14/30/1 13/28/1 17/33/1 18/36/1
f 13/29/8 16/32/8 20/38/8 17/35/8
f 21/39/9 24/49/9 28/59/9 25/53/9
f 18/36/1 17/34/1 21/40/1 22/43/1
f 17/35/10 20/38/10 24/50/10 21/41/10
f 19/37/11 18/36/11 22/43/11 23/46/11
f 22/44/9 21/42/9 25/52/9 26/55/9
f 27/56/12 26/54/12 30/61/12 31/62/12
f 24/51/9 23/47/9 27/57/9 28/58/9
f 23/48/9 22/45/9 26/54/9 27/56/9
f 28/58/3 27/57/3 31/62/3 32/63/3
f 32/63/13 31/62/13 30/61/13 29/60/13
f 26/55/1 25/52/1 29/60/1 30/61/1
f 7/17/3 12/26/3 40/79/3 44/90/3 39/77/3
f 25/53/14 28/59/14 32/63/14 29/60/14
f 3/7/4 9/19/4 34/66/4 33/64/4
f 7/15/4 3/8/4 33/65/4 35/68/4
f 42/86/15 45/93/15 52/119/15 50/113/15
f 12/24/4 7/16/4 35/69/4 36/70/4
f 9/20/4 12/25/4 36/71/4 34/67/4
f 12/26/5 9/21/5 38/75/5 42/84/5 40/79/5
f 45/94/16 42/85/16 48/106/16 49/109/16
f 8/18/7 4/10/7 10/22/7 11/23/7
f 37/74/17 41/83/17 58/139/17 59/142/17
f 44/92/18 45/98/18 57/135/18 54/127/18
f 3/9/2 7/17/2 39/77/2 41/81/2 37/73/2
f 55/129/3 54/126/3 70/160/3 71/161/3
f 38/76/19 43/88/19 46/100/19 47/103/19
f 42/85/20 38/76/20 47/103/20 48/106/20
f 43/88/21 45/95/21 49/110/21 46/100/21
f 48/107/5 47/104/5 63/153/5 64/154/5
f 45/96/21 44/91/21 53/123/21 52/120/21
f 40/80/20 42/86/20 50/113/20 51/116/20
f 44/91/22 40/80/22 51/116/22 53/123/22
f 51/117/5 50/114/5 66/156/5 67/157/5
f 41/82/17 39/78/17 55/130/17 56/132/17
f 45/97/23 41/82/23 56/132/23 57/136/23
f 39/78/24 44/92/24 54/127/24 55/130/24
f 47/105/1 46/101/1 62/152/1 63/153/1
f 41/83/25 45/98/25 61/148/25 58/139/25
f 43/89/26 37/74/26 59/142/26 60/145/26
f 45/99/18 43/89/18 60/145/18 61/149/18
f 62/152/4 65/155/4 64/154/4 63/153/4
f 68/158/4 69/159/4 67/157/4 66/156/4
f 72/162/4 71/161/4 70/160/4 73/163/4
f 75/165/4 74/164/4 77/167/4 76/166/4
f 50/115/1 52/121/1 68/158/1 66/156/1
f 59/143/2 58/140/2 74/164/2 75/165/2
f 49/111/3 48/108/3 64/154/3 65/155/3
f 56/133/2 55/131/2 71/161/2 72/162/2
f 53/124/3 51/118/3 67/157/3 69/159/3
f 60/146/1 59/144/1 75/165/1 76/166/1
f 46/102/2 49/112/2 65/155/2 62/152/2
f 57/137/1 56/134/1 72/162/1 73/163/1
f 52/122/2 53/125/2 69/159/2 68/158/2
f 58/141/3 61/150/3 77/167/3 74/164/3
f 54/128/5 57/138/5 73/163/5 70/160/5
f 61/151/5 60/147/5 76/166/5 77/167/5
