# Blender 3.5.0
# www.blender.org
mtllib Bad.mtl
o ThisBad
v 1.104914 0.166802 -0.350982
v 1.100000 -0.498794 -0.410000
v 1.104914 0.166802 0.350982
v 1.100000 -0.498794 0.410000
v -1.049982 0.166802 -0.350982
v -1.100000 -0.498794 -0.410000
v -1.049982 0.166802 0.350982
v -1.100000 -0.498794 0.410000
v 1.100627 0.010399 -0.409007
v -1.100627 0.010399 0.409007
v 1.100627 0.010399 0.409007
v -1.100627 0.010399 -0.409007
v -1.048936 0.000908 0.350527
v 1.103868 0.000908 -0.350527
v 1.103868 0.000908 0.350527
v -1.048936 0.000908 -0.350527
v 1.048936 0.000908 -0.384601
v 1.171071 -0.498794 -0.410000
v 1.171071 -0.498794 0.410000
v 1.171698 0.010399 -0.409007
v 1.171698 0.010399 0.409007
v 1.100627 0.473035 -0.409007
v 1.100627 0.473035 0.409007
v 1.171698 0.473035 -0.409007
v 1.171698 0.473035 0.409007
v 0.607372 0.214499 0.198538
v 0.607372 0.247881 0.198538
v 0.607372 0.214499 -0.210323
v 0.607372 0.247881 -0.210323
v 1.016233 0.214499 0.198538
v 1.016233 0.247881 0.198538
v 1.016233 0.214499 -0.210323
v 1.016233 0.247881 -0.210323
v 0.607372 0.191410 -0.074057
v 0.607372 0.191410 0.062230
v 0.607372 0.270970 0.062230
v 0.607372 0.270970 -0.074057
v 1.016233 0.191410 0.062230
v 1.016233 0.191410 -0.074057
v 1.016233 0.270970 -0.074057
v 1.016233 0.270970 0.062230
v 0.878403 0.191410 -0.210323
v 0.742116 0.191410 -0.210323
v 0.742116 0.270970 -0.210323
v 0.878403 0.270970 -0.210323
v 0.742116 0.191410 0.198538
v 0.878403 0.191410 0.198538
v 0.878403 0.270970 0.198538
v 0.742116 0.270970 0.198538
v 0.742116 0.289559 -0.074057
v 0.878403 0.289559 -0.074057
v 0.742116 0.289559 0.062230
v 0.878403 0.289559 0.062230
v 0.878403 0.172821 -0.074057
v 0.742116 0.172821 -0.074057
v 0.878403 0.172821 0.062230
v 0.742116 0.172821 0.062230
vn -0.0000 1.0000 -0.0000
vn -0.0000 -0.0027 1.0000
vn -1.0000 -0.0063 -0.0000
vn -0.0000 -1.0000 -0.0000
vn 1.0000 -0.0063 -0.0000
vn -0.0000 -0.0027 -1.0000
vn -0.0000 0.0019 -1.0000
vn -0.0000 0.0019 1.0000
vn -1.0000 -0.0012 -0.0000
vn -0.0000 0.9871 0.1602
vn -1.0000 -0.0000 -0.0000
vn 0.1806 0.9836 -0.0000
vn -0.0000 0.9871 -0.1602
vn 1.0000 -0.0012 -0.0000
vn 1.0000 -0.0000 -0.0000
vn -0.0000 -0.0000 -1.0000
vn -0.0000 -0.0000 1.0000
vn 0.1478 -0.9777 0.1495
vn -0.1511 0.9772 0.1494
vn -0.1511 0.9772 -0.1494
vn -0.1367 0.9906 -0.0000
vn 0.1478 -0.9776 -0.1495
vn 0.1337 -0.9910 -0.0000
vn -0.1367 -0.9906 -0.0000
vn -0.1511 -0.9772 -0.1494
vn -0.0000 -0.9908 -0.1352
vn 0.1337 0.9910 -0.0000
vn 0.1478 0.9776 -0.1495
vn -0.0000 0.9908 -0.1352
vn 0.1478 0.9777 0.1495
vn -0.0000 0.9908 0.1351
vn -0.1511 -0.9772 0.1494
vn -0.0000 -0.9908 0.1351
vt 0.122442 0.626485
vt 0.118108 0.384956
vt 0.199575 0.627172
vt 0.208212 0.385759
vt 0.123228 0.538228
vt 0.117305 0.475060
vt 0.200361 0.538916
vt 0.207409 0.475862
vt 0.072228 0.384522
vt 0.119421 0.249885
vt 0.206891 0.521741
vt 0.253289 0.476297
vt 0.254092 0.386142
vt 0.209306 0.250686
vt 0.071425 0.474676
vt 0.117006 0.520941
vt 0.215309 0.539092
vt 0.200445 0.523967
vt 0.259790 0.474238
vt 0.122359 0.641433
vt 0.107494 0.626309
vt 0.065747 0.384331
vt 0.214523 0.627262
vt 0.199392 0.642119
vt 0.260576 0.386067
vt 0.108280 0.538138
vt 0.064961 0.472502
vt 0.123411 0.523281
vt 0.118134 0.382045
vt 0.208238 0.382848
vt 0.072254 0.381611
vt 0.118652 0.336166
vt 0.254118 0.383231
vt 0.208537 0.336967
vt 0.030543 0.384150
vt 0.119050 0.291570
vt 0.295777 0.386514
vt 0.208935 0.292371
vt 0.030569 0.381240
vt 0.119024 0.294481
vt 0.295803 0.383603
vt 0.208909 0.295282
vt 0.041266 0.457874
vt 0.005817 0.491560
vt 0.079037 0.491582
vt 0.043540 0.457872
vt 0.039876 0.491583
vt 0.041286 0.491845
vt 0.044975 0.491571
vt 0.043560 0.491844
vt 0.005816 0.504752
vt 0.041258 0.445211
vt 0.079044 0.504775
vt 0.043533 0.445210
vt 0.039879 0.504775
vt 0.041238 0.411240
vt 0.043512 0.411238
vt 0.044978 0.504763
vt 0.039706 0.480524
vt 0.028498 0.491723
vt 0.039699 0.469200
vt 0.017220 0.491704
vt 0.067654 0.491726
vt 0.045120 0.469197
vt 0.056376 0.491711
vt 0.045127 0.480521
vt 0.017198 0.504616
vt 0.039678 0.433887
vt 0.028478 0.504636
vt 0.039672 0.422563
vt 0.045092 0.422559
vt 0.056358 0.504624
vt 0.045099 0.433883
vt 0.067638 0.504640
vt 0.039662 0.406972
vt 0.039718 0.500240
vt 0.039715 0.496019
vt 0.045136 0.496016
vt 0.045083 0.406969
vt 0.045139 0.500237
vt 0.005977 0.496005
vt 0.039690 0.453701
vt 0.005978 0.500226
vt 0.039688 0.449481
vt 0.078882 0.500240
vt 0.045108 0.449478
vt 0.078878 0.496018
vt 0.045111 0.453698
vt 0.056436 0.496049
vt 0.056427 0.500215
vt 0.067586 0.496044
vt 0.067578 0.500210
vt 0.028418 0.500207
vt 0.028428 0.496041
vt 0.017268 0.500208
vt 0.017279 0.496042
s 0
usemtl Material.004
f 1/1/1 5/5/1 7/7/1 3/3/1
f 15/23/2 3/3/2 7/7/2 13/17/2
f 13/18/3 7/7/3 5/5/3 16/28/3
f 6/6/4 2/2/4 4/4/4 8/8/4
f 14/20/5 1/1/5 3/3/5 15/24/5
f 16/26/6 5/5/6 1/1/6 14/21/6
f 20/31/7 18/29/7 2/2/7 6/6/7 12/15/7 9/9/7 22/35/7 24/39/7
f 4/4/8 19/30/8 21/33/8 25/41/8 23/37/8 11/13/8 10/12/8 8/8/8
f 8/8/9 10/11/9 12/16/9 6/6/9
f 12/15/10 16/27/10 14/22/10 9/9/10
f 34/59/11 37/66/11 29/50/11 28/48/11
f 10/11/12 13/18/12 16/28/12 12/16/12
f 11/13/13 15/25/13 13/19/13 10/12/13
f 18/29/14 20/32/14 21/34/14 19/30/14
f 4/4/4 2/2/4 18/29/4 19/30/4
f 22/36/1 23/38/1 25/42/1 24/40/1
f 21/34/15 20/32/15 24/40/15 25/42/15
f 9/10/11 11/14/11 23/38/11 22/36/11
f 42/75/16 45/79/16 33/57/16 32/56/16
f 38/68/15 41/73/15 31/54/15 30/52/15
f 46/82/17 49/88/17 27/46/17 26/43/17
f 56/95/18 38/67/18 30/51/18 47/83/18
f 52/91/19 36/63/19 27/45/19 49/87/19
f 44/78/20 29/49/20 37/65/20 50/89/20
f 50/89/21 37/65/21 36/63/21 52/91/21
f 42/76/22 32/55/22 39/69/22 54/93/22
f 54/93/23 39/69/23 38/67/23 56/95/23
f 32/56/15 33/57/15 40/71/15 39/70/15
f 39/70/15 40/71/15 41/73/15 38/68/15
f 26/43/11 27/46/11 36/64/11 35/61/11
f 35/61/11 36/64/11 37/66/11 34/59/11
f 34/60/24 55/94/24 57/96/24 35/62/24
f 55/94/4 54/93/4 56/95/4 57/96/4
f 28/47/25 43/77/25 55/94/25 34/60/25
f 43/77/26 42/76/26 54/93/26 55/94/26
f 40/72/27 51/90/27 53/92/27 41/74/27
f 51/90/1 50/89/1 52/91/1 53/92/1
f 33/58/28 45/80/28 51/90/28 40/72/28
f 45/80/29 44/78/29 50/89/29 51/90/29
f 41/74/30 53/92/30 48/85/30 31/53/30
f 53/92/31 52/91/31 49/87/31 48/85/31
f 35/62/32 57/96/32 46/81/32 26/44/32
f 57/96/33 56/95/33 47/83/33 46/81/33
f 30/52/17 31/54/17 48/86/17 47/84/17
f 47/84/17 48/86/17 49/88/17 46/82/17
f 28/48/16 29/50/16 44/78/16 43/77/16
f 43/77/16 44/78/16 45/80/16 42/76/16
l 14 17
