# Blender 3.5.0
# www.blender.org
mtllib Closet.mtl
o Closet
v -1.000000 -1.000000 0.452668
v -1.000000 1.000000 0.452668
v -1.000000 -1.000000 -0.500000
v -1.000000 1.000000 -0.500000
v 0.139557 -0.115671 0.500000
v 0.139557 0.115671 0.500000
v 1.000000 -1.000000 -0.500000
v 1.000000 1.000000 -0.500000
v -0.024151 -1.000000 0.452668
v 0.051636 -0.115671 0.500000
v 0.051636 0.115671 0.500000
v -0.024151 1.000000 0.452668
v 1.000000 1.000000 0.500000
v 1.000000 -1.000000 0.500000
v -0.024386 -1.000000 0.500000
v -0.024386 1.000000 0.500000
v 0.139557 0.115671 0.439681
v 0.139557 -0.115671 0.439681
v 0.051636 -0.115671 0.439681
v 0.051636 0.115671 0.439681
vn -1.0000 -0.0000 -0.0000
vn 1.0000 -0.0000 -0.0000
vn -0.0000 -0.0000 1.0000
vn -0.0000 1.0000 -0.0000
vn -0.0000 -1.0000 -0.0000
vn -1.0000 -0.0000 -0.0050
vn -0.0000 -0.0000 -1.0000
vt 0.771392 0.005434
vt 0.878356 0.215626
vt 0.669892 0.106826
vt 0.877878 0.005490
vt 0.877631 0.109142
vt 0.979270 0.106990
vt 0.771338 0.106880
vt 0.877824 0.106936
vt 0.812311 0.168990
vt 0.895981 0.088319
vt 0.902404 0.094742
vt 0.902404 0.069578
vt 0.812227 0.156673
vt 0.895981 0.076001
vt 0.771282 0.213366
vt 0.877768 0.213423
vt 0.669864 0.158784
vt 0.826400 0.215979
vt 0.816992 0.168958
vt 0.913508 0.088319
vt 0.907085 0.094742
vt 0.907085 0.069578
vt 0.816908 0.156641
vt 0.913508 0.076001
vt 0.979243 0.158947
vt 0.825675 0.109495
vt 0.877712 0.319909
vt 0.984254 0.213479
vt 0.766095 0.109901
vt 0.771225 0.319853
vt 0.664795 0.213310
vt 0.766819 0.216385
vt 0.664824 0.158768
vt 0.821360 0.216014
vt 0.984283 0.158938
vt 0.820635 0.109530
vt 0.902404 0.076001
vt 0.902404 0.088319
vt 0.907085 0.088319
vt 0.907085 0.076001
s 0
f 1/1/1 2/4/1 4/8/1 3/7/1
f 7/15/2 8/16/2 13/27/2 14/30/2
f 9/18/3 12/26/3 2/5/3 1/2/3
f 8/16/4 4/8/4 2/6/4 12/25/4 16/35/4 13/28/4
f 3/7/5 7/15/5 14/31/5 15/33/5 9/17/5 1/3/5
f 6/12/5 11/22/5 20/40/5 17/37/5
f 15/34/6 16/36/6 12/26/6 9/18/6
f 3/7/7 4/8/7 8/16/7 7/15/7
f 6/13/3 5/9/3 14/32/3 13/29/3
f 5/9/3 10/19/3 15/34/3 14/32/3
f 11/23/3 6/13/3 13/29/3 16/36/3
f 10/19/3 11/23/3 16/36/3 15/34/3
f 18/38/3 17/37/3 20/40/3 19/39/3
f 5/10/1 6/14/1 17/37/1 18/38/1
f 11/24/2 10/20/2 19/39/2 20/40/2
f 10/21/4 5/11/4 18/38/4 19/39/4
