# Blender 3.5.0
# www.blender.org
mtllib Computer.mtl
o Computer
v -0.084498 -0.361306 0.522617
v -0.084498 0.361306 0.522617
v -0.084498 -0.361306 -0.522617
v -0.084498 0.361306 -0.522617
v 0.100000 -0.400000 0.578586
v 0.100000 0.400000 0.578586
v 0.100000 -0.400000 -0.578586
v 0.100000 0.400000 -0.578586
v -0.100000 -0.400000 -0.578586
v -0.100000 -0.400000 0.578586
v -0.100000 0.400000 0.578586
v -0.100000 0.400000 -0.578586
v -0.087707 -0.400000 -0.081279
v -0.087707 -0.400000 0.081279
v 0.087707 -0.400000 0.081279
v 0.087707 -0.400000 -0.081279
v -0.100000 -0.400000 -0.192862
v -0.100000 -0.400000 0.192862
v 0.100000 -0.400000 0.192862
v 0.100000 -0.400000 -0.192862
v -0.087707 -0.461583 -0.081279
v -0.087707 -0.461583 0.081279
v 0.087707 -0.461583 0.081279
v 0.087707 -0.461583 -0.081279
v -0.211095 -0.461583 -0.293001
v -0.211095 -0.461583 0.293001
v 0.211095 -0.461583 0.293001
v 0.211095 -0.461583 -0.293001
v -0.211095 -0.477374 -0.293001
v -0.211095 -0.477374 0.293001
v 0.211095 -0.477374 0.293001
v 0.211095 -0.477374 -0.293001
vn -0.0000 -0.0000 -1.0000
vn -0.0000 -0.0000 1.0000
vn -0.0000 -1.0000 -0.0000
vn -0.9637 -0.0000 -0.2669
vn -0.9637 -0.0000 0.2669
vn -0.9283 -0.3719 -0.0000
vn -0.9283 0.3719 -0.0000
vn -0.0000 1.0000 -0.0000
vn 1.0000 -0.0000 -0.0000
vn -1.0000 -0.0000 -0.0000
vt 0.664864 0.901453
vt 0.569151 0.997112
vt 0.569248 0.654073
vt 0.664885 0.825620
vt 0.569226 0.729907
vt 0.397658 0.901378
vt 0.493317 0.997091
vt 0.493414 0.654052
vt 0.397680 0.825544
vt 0.493393 0.729885
vt 0.573237 0.905488
vt 0.573261 0.821533
vt 0.489282 0.905464
vt 0.489306 0.821509
vt 0.405328 0.905441
vt 0.489259 0.989419
vt 0.657192 0.905512
vt 0.573214 0.989443
vt 0.657216 0.821557
vt 0.573285 0.737578
vt 0.405352 0.821486
vt 0.489330 0.737555
vt 0.560251 0.903812
vt 0.525341 0.984269
vt 0.655423 0.872929
vt 0.537135 0.984272
vt 0.655631 0.862954
vt 0.561829 0.828130
vt 0.537155 0.910638
vt 0.499548 0.826831
vt 0.404375 0.857713
vt 0.497969 0.902513
vt 0.525362 0.910635
vt 0.404167 0.867689
vt 0.517244 0.989427
vt 0.545229 0.989435
vt 0.545253 0.905480
vt 0.517268 0.905472
vt 0.560365 0.898345
vt 0.649957 0.872815
vt 0.650165 0.862840
vt 0.561715 0.833596
vt 0.499433 0.832297
vt 0.409842 0.857827
vt 0.498083 0.897046
vt 0.409634 0.867803
vt 0.604445 0.886267
vt 0.605876 0.884894
vt 0.605254 0.847503
vt 0.606626 0.848934
vt 0.455353 0.844376
vt 0.453922 0.845748
vt 0.453172 0.881709
vt 0.454545 0.883140
vt 0.604475 0.884865
vt 0.605224 0.848904
vt 0.455324 0.845778
vt 0.454574 0.881738
s 0
f 9/15/1 12/21/1 8/14/1 7/13/1
f 5/11/2 6/12/2 11/19/2 10/17/2
f 18/36/3 19/37/3 5/11/3 10/18/3
f 2/4/4 1/1/4 10/17/4 11/19/4
f 3/6/5 4/9/5 12/21/5 9/15/5
f 4/10/6 2/5/6 11/20/6 12/22/6
f 1/2/7 3/7/7 9/16/7 17/35/7 18/36/7 10/18/7
f 8/14/8 12/22/8 11/20/8 6/12/8
f 9/16/3 7/13/3 20/38/3 17/35/3
f 13/23/1 16/32/1 24/45/1 21/39/1
f 7/13/9 8/14/9 6/12/9 5/11/9 19/37/9 20/38/9
f 1/3/10 2/5/10 4/10/10 3/8/10
f 13/24/3 14/26/3 18/36/3 17/35/3
f 15/29/3 16/33/3 20/38/3 19/37/3
f 16/33/3 13/24/3 17/35/3 20/38/3
f 14/26/3 15/29/3 19/37/3 18/36/3
f 21/39/8 24/45/8 28/54/8 25/47/8
f 14/27/10 13/25/10 21/40/10 22/41/10
f 15/30/2 14/28/2 22/42/2 23/43/2
f 16/34/9 15/31/9 23/44/9 24/46/9
f 27/51/2 26/49/2 30/56/2 31/57/2
f 22/41/8 21/40/8 25/48/8 26/50/8
f 23/43/8 22/42/8 26/49/8 27/51/8
f 24/46/8 23/44/8 27/52/8 28/53/8
f 29/55/3 32/58/3 31/57/3 30/56/3
f 28/53/9 27/52/9 31/57/9 32/58/9
f 25/47/1 28/54/1 32/58/1 29/55/1
f 26/50/10 25/48/10 29/55/10 30/56/10
