# Blender 3.5.0
# www.blender.org
mtllib DebsideTable.mtl
o BedsideTable
v -0.500000 -0.500000 0.500000
v -0.500000 0.500000 0.500000
v -0.500000 -0.500000 -0.500000
v -0.500000 0.500000 -0.500000
v 0.500000 -0.399326 0.399326
v 0.500000 0.399326 0.399326
v 0.500000 -0.399326 -0.399326
v 0.500000 0.399326 -0.399326
v 0.500000 0.500000 -0.500000
v 0.500000 -0.500000 -0.500000
v 0.500000 -0.500000 0.500000
v 0.500000 0.500000 0.500000
v 0.500000 -0.013139 0.399326
v 0.500000 -0.013139 -0.399326
v 0.500000 0.030232 -0.399326
v 0.500000 0.030232 0.399326
v 0.554966 -0.062280 -0.039358
v 0.554966 -0.062280 0.039358
v 0.554966 -0.136396 -0.039358
v 0.554966 -0.136396 0.039358
v 0.554966 0.350185 -0.039358
v 0.554966 0.350185 0.039358
v 0.554966 0.293162 -0.039358
v 0.554966 0.293162 0.039358
v 0.554966 -0.013139 -0.399326
v 0.554966 -0.013139 0.399326
v 0.554966 -0.399326 -0.399326
v 0.554966 -0.399326 0.399326
v 0.554966 0.399326 -0.399326
v 0.554966 0.399326 0.399326
v 0.554966 0.030232 -0.399326
v 0.554966 0.030232 0.399326
v 0.554966 -0.039813 -0.372652
v 0.554966 -0.039813 0.372652
v 0.554966 -0.372652 -0.372652
v 0.554966 -0.372652 0.372652
v 0.554966 0.372652 -0.372652
v 0.554966 0.372652 0.372652
v 0.554966 0.056906 -0.372652
v 0.554966 0.056906 0.372652
v 0.601745 -0.062280 -0.039358
v 0.601745 -0.062280 0.039358
v 0.601745 -0.136396 -0.039358
v 0.601745 -0.136396 0.039358
v 0.601745 0.350185 -0.039358
v 0.601745 0.350185 0.039358
v 0.601745 0.293162 -0.039358
v 0.601745 0.293162 0.039358
vn -0.0000 -0.0000 1.0000
vn -1.0000 -0.0000 -0.0000
vn 1.0000 -0.0000 -0.0000
vn -0.0000 -1.0000 -0.0000
vn -0.0000 1.0000 -0.0000
vn -0.0000 -0.0000 -1.0000
vt 0.419424 0.115359
vt 0.523148 0.115549
vt 0.419234 0.219082
vt 0.522958 0.219272
vt 0.522341 0.162511
vt 0.532782 0.210060
vt 0.516626 0.168199
vt 0.615620 0.210262
vt 0.428084 0.122224
vt 0.422397 0.116509
vt 0.532984 0.127222
vt 0.433788 0.167996
vt 0.428100 0.162281
vt 0.615823 0.127424
vt 0.333843 0.121995
vt 0.339558 0.116307
vt 0.626681 0.219462
vt 0.626290 0.117007
vt 0.522768 0.322996
vt 0.315511 0.218893
vt 0.522567 0.116754
vt 0.419044 0.322806
vt 0.419614 0.011636
vt 0.315701 0.115169
vt 0.522314 0.220477
vt 0.523338 0.011826
vt 0.626871 0.115739
vt 0.626037 0.220730
vt 0.522439 0.122455
vt 0.516752 0.116740
vt 0.572838 0.210158
vt 0.433913 0.116537
vt 0.573040 0.127319
vt 0.428198 0.122225
vt 0.577539 0.127330
vt 0.333750 0.160278
vt 0.339437 0.165993
vt 0.577337 0.210169
vt 0.422276 0.166195
vt 0.427991 0.160508
vt 0.471224 0.127427
vt 0.393027 0.239739
vt 0.397879 0.244591
vt 0.397879 0.226722
vt 0.479389 0.127447
vt 0.393027 0.231574
vt 0.471205 0.135114
vt 0.410418 0.239739
vt 0.405566 0.244591
vt 0.405566 0.226722
vt 0.479370 0.135134
vt 0.410418 0.231574
vt 0.376869 0.127197
vt 0.403643 0.229215
vt 0.408495 0.234067
vt 0.403643 0.247083
vt 0.385034 0.127217
vt 0.408495 0.242231
vt 0.376855 0.133111
vt 0.392876 0.234067
vt 0.397729 0.229215
vt 0.397729 0.247083
vt 0.385019 0.133131
vt 0.392876 0.242231
vt 0.433899 0.122239
vt 0.516738 0.122441
vt 0.433802 0.162295
vt 0.516640 0.162497
vt 0.339544 0.122008
vt 0.422383 0.122211
vt 0.339451 0.160292
vt 0.422290 0.160494
vt 0.436659 0.125012
vt 0.513965 0.125201
vt 0.436575 0.159535
vt 0.513880 0.159724
vt 0.342304 0.124782
vt 0.419610 0.124971
vt 0.342224 0.157532
vt 0.419530 0.157721
vt 0.397879 0.239739
vt 0.397879 0.231574
vt 0.405566 0.239739
vt 0.405566 0.231574
vt 0.403643 0.234067
vt 0.403643 0.242231
vt 0.397729 0.234067
vt 0.397729 0.242231
s 0
f 11/23/1 12/26/1 2/2/1 1/1/1
f 1/1/2 2/2/2 4/4/2 3/3/2
f 13/29/1 5/5/1 28/68/1 26/66/1
f 8/14/3 15/35/3 14/33/3 7/11/3 10/21/3 9/18/3
f 3/3/4 10/20/4 11/24/4 1/1/4
f 9/17/5 4/4/5 2/2/5 12/27/5
f 5/6/3 13/31/3 16/38/3 6/8/3 12/28/3 11/25/3
f 7/11/3 5/6/3 11/25/3 10/21/3
f 6/8/3 8/14/3 9/18/3 12/28/3
f 14/32/5 13/30/5 26/66/5 25/65/5
f 14/33/3 15/35/3 16/38/3 13/31/3
f 3/3/6 4/4/6 9/19/6 10/22/6
f 18/44/1 20/50/1 44/84/1 42/82/1
f 22/56/1 24/62/1 48/88/1 46/86/1
f 15/36/6 8/15/6 29/69/6 31/71/6
f 5/7/4 7/12/4 27/67/4 28/68/4
f 16/39/4 15/37/4 31/71/4 32/72/4
f 6/9/1 16/40/1 32/72/1 30/70/1
f 8/16/5 6/10/5 30/70/5 29/69/5
f 7/13/6 14/34/6 25/65/6 27/67/6
f 34/74/3 33/73/3 25/65/3 26/66/3
f 33/73/3 35/75/3 27/67/3 25/65/3
f 35/75/3 36/76/3 28/68/3 27/67/3
f 38/78/3 37/77/3 29/69/3 30/70/3
f 36/76/3 34/74/3 26/66/3 28/68/3
f 37/77/3 39/79/3 31/71/3 29/69/3
f 40/80/3 38/78/3 30/70/3 32/72/3
f 39/79/3 40/80/3 32/72/3 31/71/3
f 18/45/3 17/41/3 33/73/3 34/74/3
f 17/41/3 19/47/3 35/75/3 33/73/3
f 19/47/3 20/51/3 36/76/3 35/75/3
f 22/57/3 21/53/3 37/77/3 38/78/3
f 20/51/3 18/45/3 34/74/3 36/76/3
f 21/53/3 23/59/3 39/79/3 37/77/3
f 24/63/3 22/57/3 38/78/3 40/80/3
f 23/59/3 24/63/3 40/80/3 39/79/3
f 47/87/3 45/85/3 46/86/3 48/88/3
f 43/83/3 41/81/3 42/82/3 44/84/3
f 20/52/4 19/48/4 43/83/4 44/84/4
f 17/42/5 18/46/5 42/82/5 41/81/5
f 24/64/4 23/60/4 47/87/4 48/88/4
f 23/61/6 21/54/6 45/85/6 47/87/6
f 21/55/5 22/58/5 46/86/5 45/85/5
f 19/49/6 17/43/6 41/81/6 43/83/6
