# Blender 3.5.0
# www.blender.org
mtllib Safe.mtl
o Safe
v -0.300000 -0.300000 -0.300000
v -0.300000 0.300000 -0.300000
v 0.300000 -0.300000 -0.300000
v 0.300000 0.300000 -0.300000
v -0.300000 -0.300000 0.300000
v -0.300000 0.300000 0.300000
v 0.300000 0.300000 0.300000
v 0.300000 -0.300000 0.300000
v -0.170819 -0.050251 0.328263
v -0.192827 0.198525 0.334562
v -0.001038 0.198525 0.334562
v -0.126665 -0.050251 0.328263
v -0.171071 -0.089296 0.328263
v -0.126265 -0.089296 0.328263
v 0.242419 0.242419 0.328263
v -0.242419 0.242419 0.328263
v -0.242419 -0.242419 0.328263
v 0.242419 -0.242419 0.328263
v -0.199781 -0.002719 0.328263
v 0.005916 -0.002719 0.328263
v -0.065184 0.120491 0.328263
v -0.136283 0.120491 0.328263
v -0.065184 -0.002719 0.328263
v -0.136283 -0.002719 0.328263
v -0.001038 0.170104 0.334562
v 0.005916 0.120491 0.328263
v 0.005916 0.077831 0.328263
v 0.005916 0.035171 0.328263
v -0.199781 0.035171 0.328263
v -0.199781 0.077831 0.328263
v -0.199781 0.120491 0.328263
v -0.192827 0.170104 0.334562
v -0.136283 0.077831 0.328263
v -0.065184 0.077831 0.328263
v -0.136283 0.035171 0.328263
v -0.065184 0.035171 0.328263
v -0.130358 0.120491 0.328263
v -0.130358 -0.002719 0.328263
v -0.130358 0.035171 0.328263
v -0.130358 0.077831 0.328263
v -0.059714 -0.002719 0.328263
v -0.059714 0.120491 0.328263
v -0.059714 0.077831 0.328263
v -0.059714 0.035171 0.328263
v 0.005916 0.126356 0.328263
v -0.199781 0.126356 0.328263
v -0.136283 0.126356 0.328263
v -0.065184 0.126356 0.328263
v -0.130358 0.126356 0.328263
v -0.059714 0.126356 0.328263
v 0.005916 0.084230 0.328263
v -0.199781 0.084230 0.328263
v -0.136283 0.084230 0.328263
v -0.065184 0.084230 0.328263
v -0.130358 0.084230 0.328263
v -0.059714 0.084230 0.328263
v 0.005916 0.041187 0.328263
v -0.199781 0.041187 0.328263
v -0.136283 0.041187 0.328263
v -0.065184 0.041187 0.328263
v -0.130358 0.041187 0.328263
v -0.059714 0.041187 0.328263
v -0.199781 0.163150 0.344692
v -0.136283 0.163150 0.344692
v -0.199781 -0.002719 0.344692
v -0.136283 -0.002719 0.344692
v -0.059714 -0.002719 0.344692
v 0.005916 -0.002719 0.344692
v 0.005916 0.035171 0.344692
v -0.130358 0.120491 0.344692
v -0.065184 0.120491 0.344692
v -0.199781 0.120491 0.344692
v -0.136283 0.120491 0.344692
v -0.130358 0.163150 0.344692
v -0.065184 0.163150 0.344692
v -0.130358 -0.002719 0.344692
v -0.065184 -0.002719 0.344692
v -0.199781 0.035171 0.344692
v -0.199781 0.041187 0.344692
v -0.199781 0.077831 0.344692
v -0.199781 0.084230 0.344692
v -0.199781 0.126356 0.344692
v -0.136283 0.035171 0.344692
v -0.065184 0.035171 0.344692
v -0.059714 0.163150 0.344692
v 0.005916 0.163150 0.344692
v -0.059714 0.120491 0.344692
v 0.005916 0.120491 0.344692
v -0.059714 0.077831 0.344692
v 0.005916 0.077831 0.344692
v -0.059714 0.035171 0.344692
v -0.130358 0.035171 0.344692
v -0.130358 0.077831 0.344692
v -0.065184 0.077831 0.344692
v -0.136283 0.077831 0.344692
v 0.005916 0.126356 0.344692
v -0.136283 0.126356 0.344692
v -0.065184 0.126356 0.344692
v -0.130358 0.126356 0.344692
v -0.059714 0.126356 0.344692
v 0.005916 0.084230 0.344692
v -0.136283 0.084230 0.344692
v -0.065184 0.084230 0.344692
v -0.130358 0.084230 0.344692
v -0.059714 0.084230 0.344692
v 0.005916 0.041187 0.344692
v -0.136283 0.041187 0.344692
v -0.065184 0.041187 0.344692
v -0.130358 0.041187 0.344692
v -0.059714 0.041187 0.344692
v -0.199781 0.163150 0.328263
v -0.136283 0.163150 0.328263
v -0.199781 0.205478 0.328263
v -0.130358 0.163150 0.328263
v -0.065184 0.163150 0.328374
v 0.005916 0.205478 0.328263
v 0.005916 0.163150 0.328263
v -0.059714 0.163150 0.328263
v -0.196501 0.166430 0.336530
v -0.196501 0.202199 0.336530
v 0.002636 0.202199 0.336530
v 0.002636 0.166430 0.336530
v -0.170819 -0.050251 0.364483
v -0.126665 -0.050251 0.364483
v -0.171071 -0.089296 0.364483
v -0.126265 -0.089296 0.364483
vn -0.0000 1.0000 -0.0000
vn -0.0000 -1.0000 -0.0000
vn -0.0000 -0.0000 1.0000
vn 1.0000 -0.0000 -0.0000
vn 0.9999 0.0102 -0.0000
vn -0.0000 -0.4406 0.8977
vn -1.0000 -0.0000 -0.0000
vn -0.4406 -0.0000 0.8977
vn 0.4406 -0.0000 0.8977
vn -0.0000 -0.0000 -1.0000
vn -0.0000 0.4406 0.8977
vn 0.0102 -0.0015 0.9999
vn -0.9295 -0.0000 0.3688
vn -0.0000 0.9295 0.3688
vn 0.9295 -0.0000 0.3688
vn -0.0000 -0.6809 0.7324
vn 0.4722 -0.0000 0.8815
vn -0.0000 0.9295 -0.3688
vn -0.0000 -0.4722 0.8815
vn -0.4722 -0.0000 0.8815
vn -0.0000 -0.4722 -0.8815
vn -1.0000 0.0065 -0.0000
vt 0.788999 0.908886
vt 0.788999 0.821425
vt 0.876461 0.908886
vt 0.876461 0.821425
vt 0.788999 0.996348
vt 0.788998 0.644587
vt 0.701537 0.908886
vt 0.788042 0.645544
vt 0.701537 0.821425
vt 0.788042 0.733007
vt 0.788999 0.733963
vt 0.963923 0.821425
vt 0.877417 0.733007
vt 0.876461 0.733963
vt 0.876461 0.996348
vt 0.876461 0.644587
vt 0.963923 0.908886
vt 0.877418 0.645544
vt 0.807829 0.681950
vt 0.973717 0.708233
vt 0.989968 0.702504
vt 0.982371 0.959279
vt 0.977860 0.960603
vt 0.977860 0.932646
vt 0.982371 0.957145
vt 0.973717 0.690318
vt 0.814266 0.681950
vt 0.989968 0.696068
vt 0.807793 0.676258
vt 0.973717 0.702541
vt 0.814324 0.676258
vt 0.973717 0.696010
vt 0.868067 0.724613
vt 0.797393 0.724613
vt 0.797392 0.653937
vt 0.868068 0.653938
vt 0.803608 0.688879
vt 0.984030 0.755235
vt 0.833592 0.688879
vt 0.984030 0.723429
vt 0.983793 0.891548
vt 0.823228 0.706839
vt 0.973717 0.886262
vt 0.812864 0.706839
vt 0.973717 0.911699
vt 0.983793 0.916985
vt 0.823228 0.688879
vt 0.984030 0.744082
vt 0.812864 0.688879
vt 0.984030 0.764491
vt 0.973717 0.932646
vt 0.985323 0.892668
vt 0.982371 0.953002
vt 0.985859 0.839824
vt 0.833592 0.706839
vt 0.973717 0.845996
vt 0.983793 0.851281
vt 0.833592 0.700621
vt 0.987606 0.951883
vt 0.982265 0.951989
vt 0.833592 0.694402
vt 0.984030 0.728952
vt 0.973717 0.723429
vt 0.803608 0.694402
vt 0.984030 0.749711
vt 0.973717 0.755235
vt 0.803608 0.700621
vt 0.983849 0.891654
vt 0.973717 0.896996
vt 0.803608 0.706839
vt 0.973717 0.931527
vt 0.983793 0.926241
vt 0.973717 0.960603
vt 0.985323 0.920625
vt 0.982371 0.963421
vt 0.985859 0.811867
vt 0.812864 0.700620
vt 0.973717 0.906252
vt 0.983849 0.911593
vt 0.823228 0.700620
vt 0.973717 0.825695
vt 0.983849 0.831037
vt 0.812864 0.694402
vt 0.973717 0.764491
vt 0.984030 0.770014
vt 0.823228 0.694402
vt 0.973717 0.744082
vt 0.984030 0.749605
vt 0.983793 0.871476
vt 0.813727 0.706839
vt 0.973717 0.876762
vt 0.813727 0.688879
vt 0.984030 0.734582
vt 0.813727 0.694402
vt 0.984030 0.729058
vt 0.973717 0.734582
vt 0.983849 0.810853
vt 0.813727 0.700620
vt 0.973717 0.816195
vt 0.824025 0.688879
vt 0.984030 0.713862
vt 0.824025 0.706839
vt 0.983793 0.831143
vt 0.973717 0.836429
vt 0.987606 0.931633
vt 0.824025 0.700620
vt 0.982265 0.961556
vt 0.824025 0.694402
vt 0.984030 0.708339
vt 0.973717 0.713862
vt 0.833592 0.707694
vt 0.983871 0.785050
vt 0.803608 0.707694
vt 0.973717 0.866007
vt 0.812864 0.707694
vt 0.973717 0.856751
vt 0.823228 0.707694
vt 0.983871 0.805384
vt 0.813727 0.707694
vt 0.983871 0.795883
vt 0.824025 0.707694
vt 0.983871 0.775483
vt 0.833592 0.701553
vt 0.983793 0.845996
vt 0.803608 0.701553
vt 0.973717 0.926241
vt 0.812864 0.701553
vt 0.973717 0.916985
vt 0.823228 0.701553
vt 0.983793 0.886262
vt 0.813727 0.701553
vt 0.983793 0.876762
vt 0.824025 0.701553
vt 0.983793 0.836429
vt 0.833592 0.695279
vt 0.987606 0.946541
vt 0.803608 0.695279
vt 0.983849 0.896996
vt 0.812864 0.695279
vt 0.983849 0.906252
vt 0.823228 0.695279
vt 0.983849 0.825695
vt 0.813727 0.695279
vt 0.983849 0.816195
vt 0.987606 0.936974
vt 0.824025 0.695279
vt 0.981476 0.866007
vt 0.976112 0.871370
vt 0.976112 0.851387
vt 0.981476 0.856751
vt 0.981635 0.755235
vt 0.981635 0.764491
vt 0.981635 0.713862
vt 0.981635 0.723429
vt 0.981635 0.728952
vt 0.976112 0.723429
vt 0.981398 0.871476
vt 0.976112 0.876762
vt 0.981398 0.891548
vt 0.976112 0.886262
vt 0.976112 0.931527
vt 0.981398 0.926241
vt 0.976112 0.911699
vt 0.981398 0.916985
vt 0.981476 0.790520
vt 0.976112 0.795883
vt 0.981476 0.810747
vt 0.976112 0.805384
vt 0.981635 0.734582
vt 0.981635 0.744082
vt 0.981635 0.749711
vt 0.976112 0.755235
vt 0.981454 0.896996
vt 0.981454 0.891654
vt 0.976112 0.896996
vt 0.976112 0.926241
vt 0.976112 0.866007
vt 0.976112 0.764491
vt 0.981635 0.770014
vt 0.976112 0.744082
vt 0.981635 0.749605
vt 0.981476 0.770120
vt 0.976112 0.775483
vt 0.981476 0.790414
vt 0.976112 0.785050
vt 0.981398 0.831143
vt 0.976112 0.836429
vt 0.976112 0.845996
vt 0.981398 0.851281
vt 0.985212 0.931633
vt 0.979870 0.936974
vt 0.979870 0.961556
vt 0.979870 0.946541
vt 0.985212 0.951883
vt 0.979870 0.951989
vt 0.981635 0.708339
vt 0.976112 0.713862
vt 0.981635 0.729058
vt 0.976112 0.734582
vt 0.981454 0.810853
vt 0.976112 0.816195
vt 0.976112 0.825695
vt 0.981454 0.831037
vt 0.976112 0.906252
vt 0.981454 0.911593
vt 0.981476 0.785050
vt 0.976112 0.856751
vt 0.981476 0.805384
vt 0.981476 0.795883
vt 0.981476 0.775483
vt 0.981398 0.845996
vt 0.976112 0.916985
vt 0.981398 0.886262
vt 0.981398 0.876762
vt 0.981398 0.836429
vt 0.985212 0.946541
vt 0.981454 0.906252
vt 0.981454 0.825695
vt 0.981454 0.816195
vt 0.985212 0.936974
vt 0.803608 0.713058
vt 0.983871 0.866007
vt 0.973717 0.871370
vt 0.984275 0.964435
vt 0.983955 0.921639
vt 0.983955 0.810853
vt 0.973717 0.851387
vt 0.812864 0.713057
vt 0.983871 0.856751
vt 0.983955 0.912383
vt 0.803608 0.719228
vt 0.984275 0.958265
vt 0.979764 0.961617
vt 0.813728 0.713057
vt 0.983871 0.790520
vt 0.973717 0.795883
vt 0.983955 0.911519
vt 0.823227 0.713057
vt 0.983854 0.810747
vt 0.973733 0.805384
vt 0.983966 0.902018
vt 0.833592 0.719228
vt 0.979764 0.931633
vt 0.984275 0.958159
vt 0.833592 0.713058
vt 0.983871 0.790414
vt 0.973717 0.785050
vt 0.984275 0.951989
vt 0.983955 0.891654
vt 0.983955 0.840838
vt 0.824024 0.713058
vt 0.983871 0.770120
vt 0.973717 0.775483
vt 0.983955 0.901221
vt 0.985322 0.921435
vt 0.982979 0.963957
vt 0.985251 0.811331
vt 0.982979 0.958743
vt 0.978468 0.961139
vt 0.978468 0.932111
vt 0.982979 0.957681
vt 0.985322 0.891858
vt 0.982979 0.952467
vt 0.985251 0.840360
vt 0.978997 0.708233
vt 0.984689 0.702504
vt 0.978997 0.690318
vt 0.984689 0.696068
vt 0.978997 0.702541
vt 0.978997 0.696010
s 0
f 4/4/1 2/2/1 6/11/1 7/14/1
f 1/1/2 3/3/2 8/15/2 5/5/2
f 61/143/3 59/139/3 35/83/3 39/94/3
f 49/119/3 47/115/3 22/44/3 37/90/3
f 47/116/4 112/227/4 64/149/4 97/207/4
f 14/32/5 12/26/5 124/267/5 126/270/5
f 113/231/3 116/242/3 15/33/3 16/34/3
f 39/94/3 35/83/3 24/49/3 38/92/3
f 14/31/3 13/29/3 17/35/3 18/36/3
f 9/19/3 12/27/3 20/39/3 41/100/3 23/47/3 38/92/3 24/49/3 19/37/3
f 12/27/3 14/31/3 18/36/3 20/39/3
f 13/29/3 9/19/3 19/37/3 17/35/3
f 18/36/6 17/35/6 5/6/6 8/16/6
f 19/37/3 29/64/3 58/137/3 30/67/3 52/125/3 31/70/3 46/113/3 111/221/3 113/231/3 16/34/3 17/35/3
f 116/242/3 117/245/3 45/111/3 26/55/3 51/123/3 27/58/3 57/135/3 28/61/3 20/39/3 18/36/3 15/33/3
f 11/24/3 10/23/3 32/73/3 25/51/3
f 47/115/3 46/113/3 31/70/3 22/44/3
f 53/127/3 52/125/3 30/67/3 33/77/3
f 59/139/3 58/137/3 29/64/3 35/83/3
f 44/108/3 36/86/3 23/47/3 41/100/3
f 5/7/7 6/9/7 2/2/7 1/1/7
f 4/4/4 7/12/4 8/17/4 3/3/4
f 16/34/8 6/10/8 5/8/8 17/35/8
f 50/121/3 48/117/3 21/42/3 42/102/3
f 55/131/3 53/127/3 33/77/3 40/98/3
f 18/36/9 8/18/9 7/13/9 15/33/9
f 56/133/3 54/129/3 34/80/3 43/106/3
f 62/146/3 60/141/3 36/86/3 44/108/3
f 2/2/10 4/4/10 3/3/10 1/1/10
f 16/34/11 15/33/11 7/14/11 6/11/11
f 54/129/3 55/131/3 40/98/3 34/80/3
f 37/89/7 55/132/7 104/214/7 70/157/7
f 48/117/3 49/119/3 37/90/3 21/42/3
f 60/141/3 61/143/3 39/94/3 36/86/3
f 57/135/3 62/146/3 44/108/3 28/61/3
f 51/123/3 56/133/3 43/106/3 27/58/3
f 45/111/3 50/121/3 42/102/3 26/55/3
f 39/95/7 38/93/7 76/169/7 92/198/7
f 62/145/2 57/136/2 106/216/2 110/220/2
f 38/93/2 23/48/2 77/170/2 76/169/2
f 118/251/12 115/238/12 48/117/12 50/121/12
f 54/130/4 21/41/4 71/159/4 103/213/4
f 114/234/3 112/228/3 47/115/3 49/119/3
f 43/105/7 62/145/7 110/220/7 89/190/7
f 45/112/4 117/246/4 86/184/4 96/206/4
f 42/102/3 21/42/3 54/129/3 56/133/3
f 37/90/3 22/44/3 53/127/3 55/131/3
f 53/128/4 22/45/4 73/163/4 102/212/4
f 40/97/7 61/144/7 109/219/7 93/200/7
f 44/109/7 41/101/7 67/153/7 91/196/7
f 43/106/3 34/80/3 60/141/3 62/146/3
f 112/229/1 111/222/1 63/147/1 64/150/1
f 40/98/3 33/77/3 59/139/3 61/143/3
f 83/178/3 78/172/3 65/151/3 66/152/3
f 84/180/3 92/199/3 76/169/3 77/170/3
f 69/156/3 91/197/3 67/153/3 68/154/3
f 86/185/3 85/183/3 100/210/3 96/206/3
f 75/168/3 74/166/3 99/209/3 98/208/3
f 64/150/3 63/147/3 82/177/3 97/207/3
f 88/188/3 87/187/3 105/215/3 101/211/3
f 71/160/3 70/158/3 104/214/3 103/213/3
f 73/164/3 72/162/3 81/176/3 102/212/3
f 90/193/3 89/191/3 110/220/3 106/216/3
f 94/202/3 93/201/3 109/219/3 108/218/3
f 95/204/3 80/175/3 79/173/3 107/217/3
f 61/144/2 60/142/2 108/218/2 109/219/2
f 29/65/7 19/38/7 65/151/7 78/171/7
f 42/103/7 56/134/7 105/215/7 87/186/7
f 48/118/4 115/239/4 75/167/4 98/208/4
f 30/68/7 58/138/7 79/173/7 80/174/7
f 56/134/2 51/124/2 101/211/2 105/215/2
f 114/235/7 49/120/7 99/209/7 74/165/7
f 58/138/2 59/140/2 107/217/2 79/173/2
f 31/71/7 52/126/7 81/176/7 72/161/7
f 55/132/2 54/130/2 103/213/2 104/214/2
f 36/87/1 39/96/1 92/199/1 84/180/1
f 118/252/7 50/122/7 100/210/7 85/182/7
f 111/223/7 46/114/7 82/177/7 63/148/7
f 19/38/2 24/50/2 66/152/2 65/151/2
f 35/84/1 29/66/1 78/172/1 83/178/1
f 50/122/2 45/112/2 96/206/2 100/210/2
f 21/43/1 37/91/1 70/158/1 71/160/1
f 24/50/4 35/85/4 83/179/4 66/152/4
f 41/101/2 20/40/2 68/154/2 67/153/2
f 34/81/1 40/99/1 93/201/1 94/202/1
f 49/120/2 48/118/2 98/208/2 99/209/2
f 22/46/1 31/72/1 72/162/1 73/164/1
f 23/48/4 36/88/4 84/181/4 77/170/4
f 20/40/4 28/62/4 69/155/4 68/154/4
f 52/126/2 53/128/2 102/212/2 81/176/2
f 33/78/1 30/69/1 80/175/1 95/204/1
f 115/240/1 114/236/1 74/166/1 75/168/1
f 117/247/1 118/253/1 85/183/1 86/185/1
f 57/136/4 27/59/4 90/194/4 106/216/4
f 46/114/2 47/116/2 97/207/2 82/177/2
f 26/56/1 42/104/1 87/187/1 88/188/1
f 27/60/1 43/107/1 89/192/1 90/195/1
f 59/140/4 33/79/4 95/205/4 107/217/4
f 51/124/4 26/57/4 88/189/4 101/211/4
f 28/63/1 44/110/1 91/197/1 69/156/1
f 60/142/4 34/82/4 94/203/4 108/218/4
f 119/256/13 120/258/13 113/232/13 111/224/13
f 120/259/14 121/260/14 116/243/14 113/233/14
f 121/261/15 122/263/15 117/248/15 116/244/15
f 25/52/16 32/74/16 119/255/16 111/225/16 112/230/16 114/237/16 115/241/16 118/254/16 117/249/16 122/262/16
f 32/75/17 10/22/17 120/258/17 119/256/17
f 119/257/18 122/264/18 117/250/18 111/226/18
f 10/23/19 11/24/19 121/260/19 120/259/19
f 11/25/20 25/53/20 122/263/20 121/261/20
f 122/264/21 119/257/21 32/76/21 25/54/21
f 124/268/3 123/266/3 125/269/3 126/270/3
f 13/30/2 14/32/2 126/270/2 125/269/2
f 9/20/22 13/30/22 125/269/22 123/265/22
f 12/28/1 9/21/1 123/266/1 124/268/1
